# xmcd CD database file
#
# Track frame offsets:
#	150
#	13687
#	33870
#	54240
#	76695
#	94657
#
# Disc length: 1486 seconds
#
# Revision: 0
# Processed by: cddbd v1.5PL3 Copyright (c) Steve Scherf et al.
# Submitted via: CDex 1.51
#
DISCID=3305cc06
DTITLE=土岐麻子 - Standards〜土岐麻子ジャズを歌う〜
DYEAR=2004
DGENRE=Jazz
TTITLE0=My Favorite Things
TTITLE1=September
TTITLE2=The Good Life
TTITLE3=Everybody Wants To Rule The World
TTITLE4=Feelin' Good
TTITLE5=Like Someone In Love
EXTD=YEAR: 2004
EXTT0=
EXTT1=
EXTT2=
EXTT3=
EXTT4=
EXTT5=
PLAYORDER=
